<svg xmlns="http://www.w3.org/2000/svg" width="1600" height="200" fill="none"><g clip-path="url(#a)"><g fill="#B7B8BB" clip-path="url(#b)"><path d="M39.3 33.6A18.5 18.5 0 0 0 6.3 48l18.5-8.2H14.7a10.6 10.6 0 0 1 17-3l7.6-3.2ZM43 32.7 24.7 51.4H1l42-18.7ZM24.2 54.7c-2.6 0-5-.9-6.8-2.3H7.5c3 6 9.4 10 16.8 10 7.5 0 14-4.3 17-10.6h-9.6c-2 1.8-4.6 3-7.5 3ZM4.9 69.2H3.2v1.3h1.9v.7H2.4v-4.5H5v.7H3.2v1.1H5v.7ZM6.6 66.7v2.6c0 .9.4 1.3 1 1.3.5 0 .9-.4.9-1.3v-2.6h.8v2.6c0 1.3-.7 2-1.8 2-1 0-1.7-.6-1.7-2v-2.6h.8ZM10.2 66.8a7 7 0 0 1 1.3-.1c.6 0 1 .1 1.3.4.3.2.4.5.4.8 0 .6-.4 1-.8 1.2.3 0 .5.4.6.8l.4 1.3h-.8l-.3-1c-.2-.7-.4-.8-.8-.9H11v1.9h-.8v-4.4Zm.8 2h.5c.6 0 1-.3 1-.8s-.4-.7-1-.7H11v1.4ZM15.8 71.2c-1.2 0-2-1-2-2.2 0-1.4.8-2.3 2.1-2.3s2 1 2 2.2c0 1.5-.8 2.3-2 2.3Zm0-.6c.9 0 1.3-.7 1.3-1.7 0-.8-.4-1.6-1.2-1.6-.8 0-1.3.8-1.3 1.7 0 .8.5 1.6 1.3 1.6ZM21.9 71a3 3 0 0 1-1.2.2c-1.4 0-2.3-.9-2.3-2.2 0-1.5 1-2.3 2.4-2.3.6 0 1 0 1.1.2l-.2.6-.8-.2c-1 0-1.6.6-1.6 1.7 0 1 .6 1.5 1.6 1.5l.8-.1.2.6ZM24.2 71.2c-1.2 0-2-1-2-2.2 0-1.4.8-2.3 2.1-2.3s2 1 2 2.2c0 1.5-.8 2.3-2 2.3Zm0-.6c.9 0 1.3-.7 1.3-1.7 0-.8-.4-1.6-1.2-1.6-.8 0-1.3.8-1.3 1.7 0 .8.5 1.6 1.3 1.6ZM27 71.2v-4.5h1l1.2 2 .7 1.4V66.7h.7v4.5h-.8l-1.2-2-.8-1.5v3.5h-.7ZM32.4 67.4h-1.3v-.7h3.4v.7h-1.3v3.8h-.8v-3.8ZM35 66.8l1.3-.1c.6 0 1 .1 1.4.4.2.2.3.5.3.8 0 .6-.4 1-.8 1.2.3 0 .5.4.6.8l.4 1.3h-.8l-.3-1c-.2-.7-.4-.8-.8-.9h-.5v1.9H35v-4.4Zm.8 2h.5c.6 0 1-.3 1-.8s-.4-.7-1-.7h-.5v1.4ZM40.6 71.2c-1.2 0-2-1-2-2.2 0-1.4.8-2.3 2.1-2.3s2 1 2 2.2c0 1.5-.8 2.3-2 2.3Zm0-.6c.9 0 1.3-.7 1.3-1.7 0-.8-.4-1.6-1.2-1.6-.8 0-1.3.8-1.3 1.7 0 .8.5 1.6 1.3 1.6ZM43.5 66.7h.8v3.8h1.8v.7h-2.6v-4.5ZM75.3 49.2h-8.4v6.5h9.4V59H62.9V37h12.9v3.3h-8.9V46h8.4v3.2ZM83.8 37v12.8c0 4.3 1.9 6.3 4.6 6.3 3 0 4.7-2 4.7-6.3V37h4v12.5c0 6.8-3.5 9.8-8.8 9.8-5.2 0-8.5-2.8-8.5-9.7V37h4ZM101.8 37.3c1.5-.3 3.7-.5 6-.5 3.3 0 5.4.6 7 1.8 1.1 1 1.8 2.5 1.8 4.4 0 2.9-2 4.8-4 5.5v.1c1.6.6 2.6 2.1 3 4.2.8 2.8 1.4 5.3 1.8 6.2h-4.1c-.4-.7-1-2.5-1.5-5.2-.7-2.9-1.7-3.8-4-3.9h-2v9h-4V37.4Zm4 9.7h2.4c2.7 0 4.4-1.4 4.4-3.6 0-2.4-1.7-3.5-4.3-3.5-1.3 0-2.1 0-2.5.2V47ZM129.6 59.3c-6.3 0-10.3-4.7-10.3-11.2 0-6.7 4.3-11.5 10.6-11.5 6.5 0 10.3 4.9 10.3 11.2 0 7.3-4.5 11.5-10.6 11.5Zm.2-3.2c3.9 0 6.1-3.6 6.1-8.2 0-4.1-2-8-6.1-8-4 0-6.2 3.8-6.2 8.1 0 4.4 2.3 8 6.1 8ZM159.6 58.3c-1 .5-3 1-5.8 1-7 0-11.3-4.4-11.3-11 0-7.3 5-11.6 11.9-11.6 2.6 0 4.5.5 5.3 1l-.8 3.1a11 11 0 0 0-4.4-.8c-4.5 0-7.7 2.8-7.7 8 0 4.9 2.8 8 7.7 8 1.6 0 3.3-.4 4.4-.9l.7 3.2ZM171.3 59.3c-6.3 0-10.3-4.7-10.3-11.2 0-6.7 4.3-11.5 10.6-11.5 6.5 0 10.3 4.9 10.3 11.2 0 7.3-4.5 11.5-10.6 11.5Zm.2-3.2c3.9 0 6-3.6 6-8.2 0-4.1-2-8-6-8s-6.2 3.8-6.2 8.1c0 4.4 2.2 8 6.1 8ZM185.3 59V37h4.7l5.7 9.4c1.4 2.5 2.8 5 3.8 7.4-.2-3-.3-5.8-.3-9.1V37h3.7v22h-4.2l-5.8-9.7c-1.4-2.4-2.8-5.1-4-7.6l.2 9.4V59h-3.8ZM211.9 40.4h-6.4V37h16.8v3.4H216V59h-4V40.4ZM224.9 37.3c1.6-.3 3.8-.5 6.1-.5 3.2 0 5.4.6 6.9 1.8 1.2 1 1.9 2.5 1.9 4.4 0 2.9-2 4.8-4 5.5v.1c1.6.6 2.5 2.1 3 4.2.8 2.8 1.4 5.3 1.8 6.2h-4.2c-.3-.7-.9-2.5-1.5-5.2-.6-2.9-1.6-3.8-4-3.9h-2v9h-4V37.4Zm4 9.7h2.4c2.8 0 4.4-1.4 4.4-3.6 0-2.4-1.6-3.5-4.3-3.5-1.3 0-2 0-2.5.2V47ZM252.7 59.3c-6.3 0-10.2-4.7-10.2-11.2 0-6.7 4.3-11.5 10.6-11.5 6.4 0 10.2 4.9 10.2 11.2 0 7.3-4.5 11.5-10.5 11.5Zm.2-3.2c4 0 6.2-3.6 6.2-8.2 0-4.1-2.1-8-6.2-8-4 0-6.1 3.8-6.1 8.1 0 4.4 2.2 8 6.1 8ZM266.8 37h4v18.6h9.2V59h-13.2V37Z"/></g><path fill="#B7B8BB" d="M534.1 52.3 521 35.1h-16v26.7L494.5 35H474l-7.6 19.3h-12.5c-.6 3.9-3 6-7 6-4.6 0-7.2-3.5-7.2-9 0-5.4 2.7-8.8 7.3-8.8 3.7 0 6.2 2 6.7 5.1h13.8v-.9c0-7.2-6.4-13.1-20.4-13.1-15.1 0-20.8 7.3-20.8 17.8v.7c-2-2.3-5.5-3.6-11.5-4.4l-8.8-1.2c-3.3-.5-5.3-.9-5.3-2.5 0-1.3 1.2-2.8 4.8-2.8 4 0 6.2 1.5 6.2 4h14v-.7c0-6.6-6.6-10.9-19.8-10.9-13.5 0-19.4 4.8-19.4 11.6 0 5.3 3.5 8.3 11.8 9.5l9.9 1.3c3.5.5 4.7 1.2 4.7 2.6 0 1.9-1.8 3-5.9 3-4.6 0-6.7-2-6.7-4.7h-14.7v.8c0 7.3 7 11.5 20.8 11.5 12.8 0 20.2-2.8 21.4-9.7 2.5 6 8.5 9.7 19.3 9.7 8.2 0 12.8-2.2 15.5-5.4l-1.5 4h13.1l1.9-4.8h16l1.9 4.7h23.5V49l14.6 18.8h14.6V35.1H534v17.2Zm-54.6 2.1 4.6-11.8 4.6 11.8h-9.2ZM593.7 35.1h-20.4l-10.6 26.7V35h-12.9v32.7H573.6l1.8-4.7h16l2 4.7h13.3l-13-32.7Zm-15 19.3 4.6-11.8 4.7 11.8h-9.3Z"/><g clip-path="url(#c)"><mask id="d" width="215" height="53" x="713" y="18" maskUnits="userSpaceOnUse" style="mask-type:luminance"><path fill="#fff" d="M928 18H713v53h215V18Z"/></mask><g mask="url(#d)"><mask id="e" width="214" height="53" x="713" y="18" maskUnits="userSpaceOnUse" style="mask-type:luminance"><path fill="#fff" d="M926.7 18H713v53h213.7V18Z"/></mask><g fill="#B7B8BB" fill-rule="evenodd" clip-rule="evenodd" mask="url(#e)"><path d="m719.8 60.2 3.5-9.5 3.4 9.5h-6.9Zm10.3 9.6h3.2L725 46.9h-3.2L713 69.8h3.3l2.6-7h8.7l2.5 7Zm10.2-8c-3-.6-6-1.3-6-4.9 0-3.1 2.6-5.1 6.7-5.1 2.6 0 5.1 1 6.3 3.3l-2.7 1.1c-.2-.6-1.6-2.2-4-2.2-2.3 0-3.4 1.4-3.4 2.5 0 1.7 2.2 2.4 4 2.8 3.9.7 7.3 1.7 7.3 5.4 0 2.8-2.5 5.4-7.4 5.4-3.5 0-6-1.2-7.2-3.6l3-.5c.9 1.3 2.3 1.9 4.4 1.9 2.6 0 4-1 4-2.9.1-2-2.4-2.6-5-3.1Zm14.6-9.5h3.2v2.5H755v9.9c0 2 0 2.9 1.3 2.9l2-.4v2.4c-.6 0-1.8.3-3 .3-3.3 0-3.3-1.7-3.3-4V54.9h-2.8v-2.5h2.8v-4l3-1.4v5.4Zm8.8 0v3.2c1.7-3.3 4.8-3.4 6-3.4v3c-3 0-4.3.6-5.3 2.1-.7 1.3-.7 3-.7 4.5v8h-3V52.4h3Zm40-5.4v2.9l-13 17.2H804v2.8h-17v-3l13.2-17H787v-2.9h16.5Zm21.6 5.6v2.6a6.2 6.2 0 0 1 5.4-3.1c2.3 0 5 1 5.8 4 .3 1 .3 2 .3 3.5v10.3h-3v-9.9l-.1-2.8c-.5-1.7-2.2-2.4-3.8-2.4-1.3 0-2.4.4-3.3 1.3-1.3 1.3-1.3 2.6-1.3 4v9.8h-3V52.5h3Zm45.2 14.2c-1 1.7-3 3.4-6.6 3.4-6.2 0-8.5-4.7-8.5-9 0-4.9 2.7-9.3 8.2-9.3 2.2 0 5.3.6 7 3.4l-2.8 1.2c-.5-1.2-1.6-2.5-4-2.5-4.9 0-5.2 5.5-5.2 7 0 5.7 3.3 7 5.3 7 2.3 0 3.4-1.1 4-2.3l2.6 1Zm-62.3-7.4h9.2c-.2-4.6-2.8-5.3-4.6-5.3-2.6 0-4.3 1.8-4.6 5.3Zm11.6 7.2c-1 1.7-2.9 3.6-6.7 3.6-5.2 0-8.1-3.5-8.1-9.3 0-6.5 4.3-9 8-9 3.2 0 6.3 1.7 7.3 6 .3 1.5.3 2.9.3 3.6h-12.5c0 3 1.1 6.6 5.3 6.5 1.7 0 2.9-.8 3.6-2l2.8.6Zm21.7-7.2h9.3c-.3-4.6-2.9-5.3-4.7-5.3-2.5 0-4.2 1.8-4.6 5.3Zm11.7 7.2c-1 1.7-3 3.6-6.7 3.6-5.2 0-8.2-3.5-8.2-9.3 0-6.5 4.4-9 8-9 3.3 0 6.3 1.7 7.4 6 .3 1.5.3 2.9.3 3.6h-12.5c-.1 3 1.1 6.6 5.2 6.5 1.7 0 3-.8 3.7-2l2.8.6Zm33.3 3.3h-3s-.3-1.2-.3-2.6c-1 1-2.6 2.8-5.9 2.8-3.4 0-6-2-6-5 0-.8.3-1.8.8-2.5 1-1.5 2.9-2.7 8.1-3l2.8-.3v-.5c0-1.8 0-4.8-4-4.8-2.4 0-3.2 1.2-3.5 2.3l-2.7-1.1c0-.2 0-.2.2-.3 1-2 3-3.1 6-3.1a9 9 0 0 1 5 1.4c2 1.5 2 4.4 2 4.4v9s.2 2.5.5 3.3Zm-4-4.8c.5-1 .5-1.4.5-3.9l-4.6.8c-3.2.7-3.8 2-3.8 3.1 0 1.4 1.1 2.6 3.3 2.6 2 0 3.8-.8 4.6-2.6ZM785 69.8h-3s-.4-1.2-.4-2.6c-1 1-2.6 2.8-5.9 2.8-3.4 0-6-2-6-5 0-.8.4-1.8.9-2.5 1-1.5 2.8-2.7 8-3l2.8-.3v-.5c0-1.8 0-4.8-4-4.8-2.4 0-3.2 1.2-3.5 2.3l-2.7-1.1c0-.1 0-.2.2-.3 1-2 3-3.1 6-3.1a9 9 0 0 1 5 1.4c2 1.5 2 4.4 2 4.4v9s.2 2.5.6 3.3Zm-4-4.8c.4-1 .4-1.4.4-3.9l-4.6.8c-3.2.7-3.8 2-3.8 3.1 0 1.4 1.1 2.6 3.3 2.6 2 0 3.8-.8 4.6-2.6ZM926.7 45.7v-.3l-.3-.6-.3-.6-.4-.7-.3-.3-.4-.3-1-.7c-.6-.5-1.3-1-2.1-1.3l-2.8-1.2-6.4-2.2v-3.6a126.3 126.3 0 0 0-.7-9.2l-.6-2.8-.2-.7-.5-1a9 9 0 0 0-.5-.9 3 3 0 0 0-.8-.7c-.1-.1-.3-.3-.5-.3l-.4-.2-.8-.1a4 4 0 0 0-2.2.5l-1.3.8-1 .8a187.7 187.7 0 0 0-6 6l-7.3 9-3 4.2-.7 1.1-1 2-.2.6-.2.5-.1 1v.2l.2.3.3.4.5.5.5.4a14.7 14.7 0 0 0 1.4.8h.3l6.3 3.4c2.2 1 4.3 2.2 6.4 3.4l4.7 2.6-5 3.7a23 23 0 0 0-3.8 4.2c-.3.3-.4.7-.6 1l-.3.9-.2.6v.8l.3 1.2.2.2.3.4.4.4c.2 0 .3.1.5.3l.5.2.5.2a30.8 30.8 0 0 0 3 .4c1.2 0 2.3-.2 3.4-.4l4-.7 4.5-1.1 3.2-1 2.5-1 .5-.2.4-.3.4-.3.2-.4c.1-.1.3-.3.3-.5v-.6l-.2-.5-.3-.4-.7-.6-.4-.2-2.5-1.5-3.5-2 6.4-4.4a34.3 34.3 0 0 0 4.8-3.9l1-1 .3-.5.3-.4.8-1.7c0-.2 0-.5.2-.7v-1Zm-26.4-14.3 3.6-3.7.7-.6.3-.2.2-.1.2-.1.1-.1h.4l.2.2.1.1v.2c.2.2.2.3.2.5l.2.6.2 1.7.2 2.2.4 3.9-4.4-1-4-.7h-1.3l2.7-3Zm-2.7 5.3H898l.4.2.5.3 4.1 1.7 2.8 1.2 1.8.7.1.1.4 4.2v4.5l-.2.2-.2.1-.3.1h-.5l-.2-.1-.4-.2c-.2 0-.3-.2-.4-.3-.2 0-.4-.2-.5-.3l-.5-.4-.9-1-1.5-2-2-2.8a16 16 0 0 1-1-1.8l-1.3-2.8-.4-.8v-.8ZM913 61.1l1.1.7 1.4 1a9.5 9.5 0 0 1 1.4 1.1l.3.4v.1h-.1l-.1.1h-.1l-5.5.4-7.2.6h-.2l.1-.1.5-.4 2.7-2 4-2.8 1.7.9Zm5.5-14-.2.4-.4.4-.9.8-3.4 2.4-2.5 1.5-4.6 3-2-1.1-8.6-4.8-5.7-3.5-1-.7-.4-.2-.1-.1-.2-.2-.2-.3v-.4l.1-.4.6-.9c1.2-1 2.3-2.2 3.4-3.3l3-3v.5l.4.8 2.4 4a90.8 90.8 0 0 0 6 8.2c.5.5 1 1 1.5 1.3l.8.6a3.7 3.7 0 0 0 1.6.5l1-.1h.3l.2-.2s.2 0 .2-.2c.2 0 .3-.1.4-.3l.3-.3.2-.4.6-1.2.3-1.3c.2-.7.4-1.3.4-2l.4-3.6 2.7 1.2 2.4 1.4.3.2c.1.2.2.2.4.3l.2.5.1.2V47Z"/></g></g></g><path fill="#B7B8BB" d="M1180 136.8a3 3 0 0 1-.9 1.6l-.3.4c-.4.3-.4.3-.8.3l-.1.4-1 1.2a6 6 0 0 1-1.4-.9c-2.4-1.6-5-1.8-7.7-1.4-2 .5-3.6 1.9-4.7 3.5a11 11 0 0 0-1.2 7.9c.7 2.4 2 4.2 4.1 5.5 2.9 1.4 6 1 9 .2l.3-6.1h-5.5v-4.2h10.2v13.6c-2.2 1.1-2.2 1.1-3.5 1.4l-.7.2c-1.7.4-3.5.4-5.2.4h-.8a14 14 0 0 1-10.2-4 12.6 12.6 0 0 1-3.5-7.8 14.3 14.3 0 0 1 2-9.4c1.7-2.9 4.7-4.8 8-5.7 4.7-.8 10.1-.4 13.9 2.9ZM1216.6 132.6h4.8l.1 11.2 1.8-1.1c1.3-.6 2.3-.7 3.6-.7h.6a6.5 6.5 0 0 1 4 1.1c2 1.2 3.2 3 3.8 5.3.6 3.1.3 6-1.3 8.8a8.2 8.2 0 0 1-4.8 3.4c-2.5.4-4.8.1-7-1.2v-.4l-.9-.4v-.4h-.3v2h-4.4v-27.6Zm6 14.7a6.1 6.1 0 0 0-1.5 4.6c.2 1.8 1 2.9 2.4 4 1.1.9 2.2.9 3.6.7 1.1-.2 2-.9 2.7-1.9l.3-.6.3-.6a6 6 0 0 0 0-4.4 5 5 0 0 0-2.4-2.7c-2-.8-3.7-.6-5.4.9ZM1208.7 143.4a10 10 0 0 1 3.2 3.8l.3.6c1 2.1.7 5.2 0 7.3a9 9 0 0 1-4.9 4.8l-.6.3c-2.4 1-5.3.8-7.7-.2a9.7 9.7 0 0 1-5.1-5.5c-.9-3.2-.3-6.1 1.3-8.9 1.1-1.8 3.2-2.9 5.2-3.4 2.8-.6 6-.3 8.3 1.2Zm-8.9 3.8a6.6 6.6 0 0 0-1.5 4.7c.2 1.4.8 2.7 1.8 3.8 1.4.9 2.4 1 4.1 1 1.3-.4 2.2-1.1 3-2.2.8-1.4 1-3 .6-4.7-.5-1.5-1.1-2.7-2.6-3.5-1.9-.8-3.9-.6-5.4 1ZM1260 143.2c1.3.8 1.3.8 1.5 1.6v.4l-.6.2v.4l-1 1-.6.4-.5.4-.6-.2v-.4l-.4-.2-.8-.5a4.8 4.8 0 0 0-3.8-.2l-.7.3c-.1.9-.1.9.2 1.7l1.4.7a72.2 72.2 0 0 0 2 .5c2 .6 3.8 1.2 5 3a7 7 0 0 1 0 5.1 6 6 0 0 1-3.5 3 12 12 0 0 1-9.5-1.4l-1.1-1c0-.7.1-1 .6-1.4l.5-.5.6-.4.4-.4.4-.4c.8 0 1.3.4 1.9.9 1.2 1 2.5 1 4 .8.7-.1.7-.1 1.2-.4.2-.9.2-.9 0-1.7-.7-1.1-2.5-1.3-3.6-1.6-2-.5-3.6-1-4.7-2.8a7 7 0 0 1-.2-4.4c.6-1.6 1.8-2.5 3.2-3.2 2.7-1 6.4-.8 8.8.7ZM1131.6 147.9a6.8 6.8 0 0 1 2.7 4.4c.2 2.3-.1 4-1.6 5.7a6.3 6.3 0 0 1-4.5 2.2c-2 0-3.5-.4-5.1-1.6v-.4l-.6-.2a7.8 7.8 0 0 1-1.6-5.7 7 7 0 0 1 3.1-4.6 7.1 7.1 0 0 1 7.6.2ZM1131 133.1a7 7 0 0 1 3.1 3.9c.4 1.7.4 3.6-.4 5.3l-.3.7a6.7 6.7 0 0 1-4 2.8c-2.2.3-4.1.1-6-1.2a7 7 0 0 1-2.5-4.3c-.2-2.2.3-4 1.7-5.8a7.4 7.4 0 0 1 8.3-1.4ZM1145.8 147.9c1.4 1 2.2 2.2 2.7 3.8v2.4c0 1.3-.2 2.3-1 3.3l-.4.6-.4.4h-.4v.4l-1 .6c-.2 0-.4.2-.5.3-1.6.7-3.6.7-5.2.2a7.5 7.5 0 0 1-3.9-3.4 7 7 0 0 1-.5-3v-.5c0-2.3 1.1-3.5 2.7-5a7.3 7.3 0 0 1 7.9-.1ZM1145.1 133.1c1.7 1 2.9 2.3 3.4 4.2.3 2.3.2 4.3-1.2 6.1a7 7 0 0 1-3.5 2.4c-2.2.3-4.3.2-6.1-1.2a6.4 6.4 0 0 1-2.5-4.5c0-2.1.2-3.8 1.6-5.5a7.3 7.3 0 0 1 8.3-1.5ZM1185 132.6h4.7v27.6h-4.8v-27.6Z"/><path fill="#B7B8BB" d="M1136.3 128a764.5 764.5 0 0 1 9 0h.8a7 7 0 0 1 5.4 2 33.5 33.5 0 0 1 1.4 2.2c.6 1.4.3 3.2.3 4.7V145h-3.7v-4.3l-.1-1.4v-2.8c0-2.1 0-2.1-1.2-3.9-1-.8-2.1-.8-3.5-.8h-.7a178 178 0 0 0-7.7-.2v-3.5ZM1124.7 128h.8a426.9 426.9 0 0 1 7.8 0v3.6h-1a1773.7 1773.7 0 0 0-7.1.3h-.7c-1.6 0-1.6 0-3.2.5l-.2.6h-.4c-.4 1.4-.4 2.6-.5 4v8h-3.8v-9.2c0-1.9 0-3.7 1.3-5.2l.3-.4c.4-.3.4-.3.8-.3v-.4l.8-.5.4-.3c1.5-.7 3-.7 4.7-.6ZM1116.4 147.8h3.7v6l.1 2.1v.7c0 1.4.2 2.2 1 3.4 1.2 1.2 3.6 1 5.3 1h.6a392.9 392.9 0 0 0 6.2.2v3.5H1124c-1.6 0-3.2 0-4.6-1-.2 0-.3-.2-.5-.3l-1-.8v-.4h-.3c-1-2-1.3-3.6-1.2-5.8v-8.6ZM1149.5 147.8h3.7V157.4c0 2.3-.5 4-2 5.6a7 7 0 0 1-1.7 1.1l-.4.3c-.9.3-1.8.3-2.8.3h-10.1v-3.5h3.9l1.2-.1h2.4c2.6 0 2.6 0 4.8-1.1 1-1.3.8-3.4.8-5v-.6a129 129 0 0 0 .1-3.3v-3.3ZM1239.3 142.5h4.9v17.7h-5v-17.7ZM1116 170.8h3.3c2.2 0 3.8.2 5.4 1.7 1 1.2 1 2.6 1 4a5 5 0 0 1-1.8 3.6c-2.7 1.6-4.3 1.2-7.9 1.2v-10.5Zm2.6 2.6v5.3c2 .1 2 .1 3.5-.8.6-1 .7-1.8.5-2.9-.2-.7-.6-1-1.3-1.4-.8-.4-1.8-.2-2.7-.2ZM1134 173.5h.6c.5 0 .8.2 1.3.5l.2-.2a34.4 34.4 0 0 1 2.2 0h.5v3.8c.2 4.6.2 4.6-.9 5.8-1.2 1.2-2.6 1.3-4.3 1.3-1-.1-1.8-.3-2.6-.9l-.4-.8 1.2-1.5 1.2.3c.8.4.8.4 1.7.3l1-.4v-.6l-.4.2c-1.5 0-2.6.1-3.7-.8-1-1.3-1.1-2.6-1-4.2.3-1.2 1-1.8 2-2.5.5-.3.8-.3 1.4-.3Zm-.7 3.2-.2 1c.4.7.6 1.1 1.3 1.4.6 0 1-.2 1.5-.6.3-.6.3-1 .2-1.6-.3-.6-.3-.6-.8-1-1-.1-1.4 0-2 .8ZM1197.5 173.6c1 .4 1.6 1.1 2.2 2 .4 1.1.4 2.7 0 3.9-.6.9-1.2 1.6-2.3 1.9-1.1.1-2 0-3-.5v3.7h-2.8v-10.8h3.4c.7-.4 1.7-.3 2.5-.2Zm-3.1 3.3c0 .8 0 1.2.5 1.9.4.3.4.3 1 .4.6-.1.8-.4 1.2-.9a2 2 0 0 0 0-1.5c-.1-.5-.1-.5-.8-.9-1-.1-1.4.2-2 1ZM1188.3 173.6c.7.3.7.3 1.2.8l.4.3c.8 1 .8 2.2.8 3.4a4.5 4.5 0 0 1-1.4 2.8c-.8.5-1.6.6-2.6.6l-1.4-.4-.2 3.5h-2.7v-10.8h3.3c.8-.4 1.7-.3 2.6-.2Zm-2.8 2.7c-.5.7-.5 1-.3 1.8.1.4.1.4.5.8.5.2.8.3 1.4.2.6-.4.6-.4.9-1 .1-.8.1-.8-.1-1.4-.4-.6-.4-.6-1-.8-.8 0-.8 0-1.4.4ZM1225.5 171.4c.4.4.4.4.4.8-.3.8-.7 1.3-1.4 1.8-.6 0-.9-.2-1.3-.4-.7-.3-1.2-.3-1.9-.2-.8.3-1.2.7-1.5 1.6-.3 1-.3 1.8.3 2.8.4.5.8.7 1.5.9 1 0 1.6-.2 2.3-.8.7 0 1 .4 1.5.8a21.3 21.3 0 0 1 .7.6c-.1.6-.2.8-.6 1.2-1.6 1-3 1.1-5 1-1.3-.4-2.5-1-3.3-2.3-.9-1.5-1-3.2-.7-5a5.1 5.1 0 0 1 2.4-3c2-1 4.7-.9 6.6.2ZM1172.2 171.2c.3.2.3.2.5.6 0 .4 0 .4-.4 1h-.4l-.2.6h-.4v.4l-1.1-.4c-.8-.4-1.5-.3-2.2 0 0 .4 0 .4.4.8l1.4.5c1.3.5 2.2 1 2.8 2.2.2 1 .2 2-.3 3-.7.9-1.5 1.4-2.5 1.6-1.8.1-3.3 0-4.8-1l-.4-.4c.1-.7.2-.8.7-1.2l.5-.4.2-.4c.6.1 1 .2 1.6.5.8.4 1.3.4 2.2.1l-.4-1-1.8-.8c-.9-.3-1.6-.6-2.2-1.4-.3-1-.4-2.1 0-3.1s1-1.4 2-1.7c1.6-.3 3.2-.2 4.8.5ZM1226.7 170.2h2.5v4l1-.6c1-.2 1.8-.1 2.7.3.8.7 1 1.4 1.1 2.5v4.9h-2.8l-.2-5.2h-1c-.6.7-.6 1.3-.6 2.2v1l-.1.6v1.4h-2.6v-11ZM1204.2 173.8h3c.5 1.1 1 2.3 1.3 3.5l.3-.7.3-1 .2-.4.2-.5.1-.4.3-.5H1212.7c-.3 1.5-.8 2.8-1.4 4.3l-.6 1.4-.2.6-.4 1c-1 2.7-1 2.7-2 3.3-1 .4-2.2.3-3.3.2v-1.3c0-.4 0-.8.2-1.3l.7.1c.7 0 .7 0 1.1-.4.5-1.7-1.1-4.1-1.8-5.6l-.3-.7-.3-.5c-.2-.5-.2-.5-.2-1.1ZM1253 173.6c1 .3 1.3 1 1.8 1.7l.1 1.5v4.4h-2.8l-.2-4.9-1.4-.2-.2 5.2h-2.8v-7.5h2.6v.4l.4-.3c.8-.4 1.6-.4 2.5-.3ZM1240 173.6c1 .5 1.4.9 1.8 1.8l.3 2.1v3.8h-3.8c-1 .2-1.8.2-2.8-.4-.6-.6-.6-1-.6-1.9v-.5c0-.8.4-1 1-1.6l1.7-.4.4-.1 1-.3c-.2-.2-.2-.2-.8-.2-.7 0-.7 0-1.3.4l-1-.2-.8-1c.4-.7.7-1 1.5-1.4 1.1-.3 2.3-.3 3.5-.1Zm-2.5 4.9v.8l.8.2 1-.6.2-.8c-.8 0-1.3.1-2 .4ZM1154.4 173.6c.8.5 1.4.9 1.8 1.8l.2 2.1v3.8h-3.7c-1 .2-1.9.2-2.8-.4-.6-.6-.7-1-.7-1.9v-.5c.1-.8.4-1 1-1.6l1.7-.4.4-.1 1.1-.3c-.2-.2-.2-.2-.9-.2s-.7 0-1.3.4c-.6 0-.8-.2-1.3-.7l-.4-.4c.3-.8.7-1.1 1.4-1.5 1.1-.3 2.3-.3 3.5-.1Zm-2.6 4.9v.8l.8.2c.6-.2.6-.2 1-.6l.2-.8c-.8 0-1.3.1-2 .4ZM1173.7 173.8h2.6v2.4c0 1 .2 1.8.5 2.7.7 0 .7 0 1.2-.4a18.5 18.5 0 0 0 .1-1.7v-1.4l.1-1.6h2.8v7.5h-2.6l-.2-.4-.4.4c-1 .2-2.1.3-3.1-.2-.9-1-1-1.5-1-2.8v-4.5ZM1260.9 173.8l1 .6c0 .6-.2 1-.5 1.4-.5.3-.5.3-1 .3l-.7-.2c-.3 0-.7 0-1.1-.2.1.5.1.5.7.6l1.3.4.5.2.2.6h.4c.4.8.3 1.6.2 2.4-.3.7-.8 1.1-1.6 1.4-1.8.3-3.3.2-4.9-.8 0-.6.3-.9.7-1.4.5-.4.5-.4 1-.4l.9.4h1.2c-.6-.6-1.3-.7-2-1-.6-.2-.9-.3-1.2-.8-.2-.8-.2-1.5 0-2.3 1-1.7 3.1-1.8 4.9-1.2ZM1144.5 171.8h2.8v2h1.6v2.1h-1.6l.1 1.4v.8c0 .6 0 .6.3 1h1.2v2.2c-2.1.2-2.1.2-3.2 0-.6-.5-.9-.8-1-1.5-.2-.8-.2-1.6-.2-2.4V176h-1v-2.2h1v-2ZM1201 170.2h2.8v11h-2.7v-11ZM1157.8 170.2h2.7v11h-2.8v-11ZM1243.8 134.6c.7.7 1 1.2 1 2.2 0 .9-.2 1.5-.8 2.1-1 .7-1.8 1-3 .8-.9-.3-1.6-.7-2.1-1.6l-.1-1.2v-.7c0-.7.2-1 .7-1.4h.4v-.4c1.4-.6 2.5-.6 3.9.2ZM1140.2 173.8h2.8v7.5h-2.8v-7.5ZM1243.4 173.8h2.6v7.5h-2.6v-7.5ZM1126.8 173.8h2.6v7.5h-2.6v-7.5ZM1142.4 170.2c.4.3.6.5.7 1v1c-.1.5-.3.7-.7 1-.6 0-1 .1-1.6 0-.5-.4-.5-.4-.8-1 0-.7.1-1.2.4-1.8.6-.3 1.3-.3 2-.2ZM1245.4 170.2l.4.2v.4h.4c0 1.4 0 1.4-.3 2-.7.5-1.1.5-1.9.4-.5-.3-.5-.3-.8-.8-.1-.8-.1-1.2.3-1.9.7-.4 1.1-.3 1.9-.3ZM1128.8 170.2c.5.2.5.2.8.6.1.9.2 1.3-.3 2-.7.5-1.1.5-1.9.4-.5-.3-.5-.3-.8-.8 0-.8 0-1.2.3-1.9.7-.4 1.1-.4 1.9-.3Z"/><path fill="#B7B8BB" d="M1147.3 131.8c.9.1 1.2.4 1.8 1l-.2.6a45 45 0 0 1-.8-.7l-.4-.4c-.2 0-.3-.2-.4-.3v-.2ZM1118.8 129.5h.4c-.3.5-.6 1-1 1.3h-.4l.4-.7.6-.2v-.4ZM1406.5 29.1a5.2 5.2 0 0 0-3.5 5.2c0 1.7.5 2.8 2.4 5.1 1.6 2 2.4 3.5 2.9 5.1.2 1 .2 1.8.2 4.8 0 3.6 0 3.6.4 4.6.6 1.3 1.3 2 2.4 2.7.8.4 1 .5 2.5.5 1.3 0 1.7 0 2.4-.4a5.4 5.4 0 0 0 2.8-6.3c-.4-1.3-.8-1.8-2.4-3.9a14 14 0 0 1-2.6-4.4c-.4-1-.4-1.4-.4-5.2 0-3.7 0-4-.4-4.8a5.5 5.5 0 0 0-6.7-3ZM1428.2 37.7a6.4 6.4 0 0 0-5 5.2c-.2 1-.2 2 .2 4.6.6 3.6.5 5.8-.4 8.1-.3.7-1.3 2.5-2.3 4-2 3.1-2.3 3.9-2.3 5.9 0 1.3 0 1.6.6 2.6a6.2 6.2 0 0 0 5.7 3.6c3.7 0 6.4-2.8 6.4-6.6l-.4-3.4c-.7-5.3-.3-7.2 2.8-12 1.6-2.4 2-3 2.2-4.8.4-1.7-.3-3.9-1.6-5.4a7.2 7.2 0 0 0-3.6-1.9c-1.2-.2-1.1-.2-2.3.1ZM1455.4 42c-3.2.5-5.5 2-6.5 4-.5 1.1-.5 3.4 0 4.2 1.2 2.3 3.1 3.5 8.1 5 3.6 1 5.1 1.7 5.7 2.9.3.5.3 2.2 0 2.7-.7 1.5-2.2 2.2-4.7 2.4-3.5.2-6-1.2-6.7-3.5l-.3-1h-3.3v.7c.2 1.2 1 2.8 2 3.7 1.9 1.7 4.6 2.6 7.8 2.6 4.1 0 7-1.3 8.3-3.7.4-.6.5-1 .6-2.3 0-1.3 0-1.6-.4-2.5-.6-1.2-1-1.8-2.4-2.6a20 20 0 0 0-5.7-2.3c-4.7-1.2-6.5-2.7-5.8-5.1.3-1 1.2-2 2.4-2.4a11 11 0 0 1 5.5 0c1.6.6 3 2.2 3 3.7 0 .3 0 .4 1.7.4h1.8l-.2-.9c-.3-2.6-2.7-5-5.9-5.8-1.3-.3-3.6-.4-5-.2ZM1487.7 42c-1 .4-1.6 1.7-1 2.7.5 1.1 2 1.3 3 .4.4-.4.5-.6.5-1.2 0-1-.4-1.6-1.2-1.9-.6-.3-.8-.3-1.3 0ZM1493 42v23.4h15.6V63h-12.2V41.8h-1.7c-1.1 0-1.6 0-1.7.2ZM1511.5 42.1c-1 .8-1 2.5.1 3.2 2 1.2 4.2-1.6 2.4-3-.7-.6-1.8-.7-2.5-.2ZM1523.3 42a5.3 5.3 0 0 0-3.8 4.9V48h-3.1v2.2h3.1v15.1h3.2V50.2h3.3V48h-3.3l.1-.9c.3-2.1 1.9-3.2 4.3-2.8l.8.1V42c-.1-.3-3.9-.2-4.6 0ZM1544.8 53.5v11.8h15.7v-2.6h-12.3V41.8h-3.4v11.7ZM1579.8 53.5v11.8h1.4c1.6 0 1.7 0 1.7-1.4v-.5l.6.5c2 1.8 5.8 2.2 8.5.9 2.4-1.3 4-4.3 4-8 0-4.8-2-8-5.5-8.9a8 8 0 0 0-7 1.4l-.5.5v-8h-3.2v11.7Zm10-2.8c1.7.7 2.7 2.4 2.9 5 .1 3-.7 5.4-2.1 6.4-2 1.5-5.3 1.1-7-.9l-.5-.6v-7.9l.7-.8c1-1.3 2-1.6 4-1.6 1 0 1.4 0 2 .4ZM1394.4 42.5a5.7 5.7 0 0 0-3.2 8c1.5 2.8 4.8 4 7.7 2.5a5.8 5.8 0 0 0 1.4-9.2 6 6 0 0 0-6-1.3ZM1532.7 47.9c-3.8 1-6.1 3.9-6.4 8-.3 2.5.4 5 1.7 6.7a8.7 8.7 0 0 0 6.9 3 9 9 0 0 0 4.8-1.1c.8-.4 2.5-1.9 2.5-2.2l-1-.8-1-.7-.7.7a5.6 5.6 0 0 1-4.2 1.6c-1.2 0-1.6 0-2.5-.5a5.4 5.4 0 0 1-3-3.8l-.3-1c0-.3.3-.3 6.5-.3h6.6l-.1-1.8c-.2-3.5-1.5-6-3.9-7.2-1.6-.8-4.1-1-6-.6Zm3.5 2.5c1.6.4 2.8 2 3 4v.6h-9.6l.3-1.1c.8-3 3.4-4.4 6.3-3.5ZM1567.3 48c-2.8.5-5.3 2.6-5.3 4.4v.4h3.3v-.5c.3-1.3 2.4-2.3 4.6-2.2 2.3.2 3.4 1.2 3.5 3.3v1.3h-2.9c-1.6.1-3.3.3-4 .5-2.1.5-3.8 1.7-4.5 3.1-.5 1-.5 3-.1 4 1 2.2 4.2 3.6 7.3 3.2 1.4-.2 3.3-1 3.8-1.6.4-.4.6-.4.6 0 0 .2 0 .5.2.9l.2.5h1.7c1.9 0 1.8 0 1.4-1.3-.3-.7-.3-2-.4-6.6-.1-5.5-.1-5.7-.5-6.5-.5-1-1.4-1.8-2.5-2.4-1.5-.8-4.3-1-6.4-.6Zm6.1 10.7v2l-.8.7a6 6 0 0 1-5.4 1.4c-3-.9-3.1-4.4-.2-5.4 1.1-.3 2.7-.5 4.7-.6h1.7v2ZM1474.7 48a8.2 8.2 0 0 0-4.6 2.5c-3 3.2-2.8 9.8.3 12.9 3 3 8.6 3.1 11.9.2.8-.8 1.9-2.5 1.9-3.3 0-.4 0-.4-1.6-.4h-1.5l-.1.6c-.2.8-1.4 2-2.4 2.4-1 .4-2.6.5-3.8.1a5 5 0 0 1-2.9-2.5c-.7-1.7-.8-4.6-.2-6.6.8-2.8 3.5-4.2 6.4-3.4 1.3.4 2.5 1.5 2.8 2.7l.2.9h3.1l-.1-.8a7 7 0 0 0-1.9-3.5c-.9-.8-2.5-1.6-3.7-1.8-1-.2-3-.2-3.8 0ZM1511 56.6v8.7h3.3V48h-3.3v8.6ZM1486.7 56.8v8.7h3.3V48.2h-3.3v8.6Z"/><g clip-path="url(#f)"><path fill="#B7B8BB" fill-rule="evenodd" d="M81.4 179.6H68.8v-16.4h-13v16.4H43.1v-41.8h12.5v16.6h13.1v-16.6h12.6v41.8Zm55.8-8.4-2 8.4h-22.6v-41.7H125v33.3h12Zm-46.5-33.3h12.5v41.7H90.7v-41.7Zm63.5 41.7h-12.6v-41.7h12.6v41.7Zm81.8-13.1c0 10.5-8.6 14-19.1 14-4.2 0-9.3-.8-13.1-2.2l-1.4-9.5c3.8 1.9 10.2 3.3 14.3 3.3 4.7 0 6.6-1.4 6.6-4 0-6.8-19.7-3.9-19.7-18.5 0-8.5 7-12.6 17-12.6 5.4 0 8.3.5 11.6 1.2l1 9.1a31 31 0 0 0-11.2-2.1c-3.6 0-5.8 1-5.8 3.3 0 6.6 19.8 4 19.8 18Zm-59.8 3.1v10h-12.5v-41.7a137 137 0 0 1 15.3-.9c13 0 20.8 4.2 20.8 15.9 0 10.6-7.4 16.7-19 16.7h-4.6Zm2.1-24.8h-2v17.3h2c6.6 0 9.1-3.6 9.1-9 0-5.3-2.9-8.3-9-8.3ZM14.6 169.6v10H2v-41.7c4.3-.6 10.3-.9 15.3-.9 13 0 20.9 4.2 20.9 15.9 0 10.6-7.4 16.7-19.2 16.7h-4.4Zm2-24.8h-2v17.3h2c6.6 0 9.2-3.6 9.2-9 0-5.3-3-8.3-9.2-8.3Z" clip-rule="evenodd"/></g><g fill="#B7B8BB" clip-path="url(#g)"><path fill-rule="evenodd" d="M1066.8 26.7c.5-2.4-1-4.5-3.9-5.3-.7-.2-1.7-.4-2.3-.4-1 0-3.1.6-3.1 1l-.3.1-1 .7c-1 .9-1.5 1.8-2.6 4l-.6 1-.5 1a87.6 87.6 0 0 1-2.2 5.5l-.5 1.6-.4 1.2h-3.1c-3.9-.1-5 0-5.8.9-.4.4-.5.7-.5 1.4s0 .9.9 1.7a21.1 21.1 0 0 0 6.4 3 55.1 55.1 0 0 0 0 17l.4 1.6.5 1.2a9 9 0 0 0 1.6 2.8s.2.1.2.3c0 .2.6 1 1.8 2 .7.5 3.1 1.6 3.7 1.6.2 0 .5 0 .5.2 0 .3 4.7.2 5.9 0 3.5-1 6.5-3.4 8.6-7l.7-1.1v1.8c0 1.9.3 3.8.8 4.6.4.6 1.3 1.4 2 1.6a5 5 0 0 0 3.4 0c1.4-1 1.8-2.2 2.3-7.2 0-.5.2-1 .3-1.2l.2-.8a29.2 29.2 0 0 1 3.5-10.9l.5-.5c.5-.7 1.7-1.5 2.3-1.5l.7.1.3 2.6a10 10 0 0 0 1.5 5.1 5 5 0 0 0 3 2.3c1 .4 2.8.4 3 .2 0-.2.3-.2.5-.2a8 8 0 0 0 3-1.4c.9-.7 1-.6.9.2l-.2 3.2c0 3.8.6 5.4 2.5 7.5 2 2 3.7 2.8 6.8 2.8 1.1 0 2.3 0 2.5-.2l1.5-.5c1-.3 1.8-.6 3.6-1.6l.7-.4.9.8c.9.8 1.7 1.3 3.1 1.7 1 .3 4.8.2 6.2-.2a15 15 0 0 0 4.7-2.4l.8-.7.9.8c1.3 1.2 3 2 5.4 2.5a28.3 28.3 0 0 0 9-.6l1.4-.4 1.2-.5 2-1.4c2.6-1.9 4.7-4.3 5.4-6.3.7-2.2 0-3.8-1.4-3.6-.7.2-1 .3-3.3 2a15.6 15.6 0 0 1-6.3 3l-2 .2c-2 0-3.1-.4-3.9-1.2l-.4-.3c0-.2-.2-.3-.3-.4-.2-.2-.5-.7-.6-1.2-.3-1-.2-1 1.1-1l1-.2.5-.2c.6 0 2.6-.5 3.5-.8l1.5-.6c1.1-.3 2.4-.8 2.5-1 .1-.2.3-.2.5-.2l.4-.2c0-.1 0-.2.2-.2l.8-.5.8-.4a14.2 14.2 0 0 0 2.9-3c.3-.3 1.1-2.1 1.1-2.5 0-.3 0-.5.2-.5.3 0 .4-2.9 0-4.3a8.5 8.5 0 0 0-1.8-4 11.4 11.4 0 0 0-4.4-2.8l-.4-.2c-.2-.1-1.5-.2-3.2-.2a14.2 14.2 0 0 0-12 5.6 19 19 0 0 0-3.7 7.1v.2l-.4 1.2-.1.6-.2.7-.6 4.7c-.3 2.2-.8 3.9-1.4 4.5-.9.8-2.6 1.1-3.7.6-1.3-.7-1.7-2-1.3-4.7l.7-5.2.4-2.5.8-5.1c.6-4.3.7-5.5.3-6.5-.5-1-1.4-1.4-3-1.2-2.2.2-3.8 1-4.9 2.7-.8 1-1 1.7-1.5 5.4l-.1 1.1-.3 1.5a69.3 69.3 0 0 0-1 7.8c-.4 2.6-.8 4.1-1.5 4.9-.6.6-.6.7-1.8.7-1.7 0-2.2-.2-2.7-1s-.5-1-.4-2.4a37.3 37.3 0 0 1 .7-5.5 93.7 93.7 0 0 1 .4-3.2l.3-1.8.2-1.6.3-1.5.3-2.7c.3-3.1-.2-4.2-2-4.4-1.4-.2-3.3.3-4.3 1-2 1.4-2.5 2.3-3 6.3a9.7 9.7 0 0 1-1.4 3.7c-.6 1-.8 1.2-1.8 1.6-2.2 1-3.7-.3-3.1-2.9.3-1.5.4-2.3.5-4.6.1-2.8 0-3.3-.8-4.2-1.3-1.3-3.2-1.2-6 .2-1.3.6-2 1.1-3.8 2.8-2 2-2.1 2-2 1.5.3-1.4.3-3.1.1-3.8-.3-1.3-1-1.6-2.8-1.6-1.5 0-3.2.5-3.2.9l-.3.1c-.3 0-1.6 1.3-2 2.1-.4.8-.6 1.5-.9 3.2a17.2 17.2 0 0 1-.5 1.8l-.4 1.5-.4 1-.4 1-1.2 3-.5 1.2s0 .2-.2.2c0 0-.2 0-.2.2a16.5 16.5 0 0 1-2.6 4.7l-.6.7a11 11 0 0 1-2.4 2.5 6 6 0 0 1-3.7 1.4c-1.6 0-2.4-.5-3.1-2-.4-.8-.4-1.2-.4-4.2a29.4 29.4 0 0 1 1.7-10.5l6 .6c1.2 0 1.8 0 2.4-.2.9-.4 2-1.4 2-2l.1-.2c.3 0 .6-1.6.7-2.5 0-2.6 0-3-.7-3.7-.8-.8-1.6-1-5-1-2.2 0-2.4 0-2.3-.2l.1-.5.2-.4.3-.6c.4-.4 4-8 4.1-8.7Zm74.7 21a8 8 0 0 1 2.8-1.6c1.7-.6 3.6-.6 4.3 0 .8.9.3 2.6-1.2 4a18 18 0 0 1-8 3c-.2 0 0-1.9.3-2.4.2-.2.3-.5.3-.8 0-.3.8-1.5 1.5-2.1Z" clip-rule="evenodd"/><path d="M1245.6 47.6c0-18.2 0-22.6-.2-22.7-.4-.3-9-.2-9.4 0-.3.2-.4 1.5-.4 22.7 0 19.3 0 22.4.3 22.6a58 58 0 0 0 9.5 0c.1 0 .2-10.2.2-22.6ZM1231.3 70c.3-.4.3-44.3 0-44.8-.2-.3-.6-.3-5-.3-3.6 0-4.8 0-4.8.2l-.1 22.8v22.4h4.9c4.7.1 4.8.1 5-.2Z"/><path fill-rule="evenodd" d="M1276 44.7a12.9 12.9 0 0 0-8.5-7c-.7-.3-4.3-.5-5.5-.4a15 15 0 0 0-8.2 3.8 17.2 17.2 0 0 0-5.2 9.7c-.3 1.3-.3 5.7 0 6.9.9 3.7 1.6 5.4 3.3 7.5a15 15 0 0 0 7.8 5.2l1 .3.5.1c1 .3 6 .2 7.5 0 2.6-.7 5.6-1.9 7-3 .6-.3.7-.5.6-.9l-.4-.8a39 39 0 0 1-2.1-3.7c-.5-.9-.5-1-1-.9l-1 .4c-.5.5-2.9 1.3-4.3 1.4-2 .2-3.8 0-5.2-.7a6 6 0 0 1-2.7-2.1c-.5-.7-1.4-2.8-1.4-3.3 0-.1 1.9-.2 9.4-.2 5.2 0 9.5 0 9.6-.2.2-.2.5-2.6.5-4.1 0-2.4-.8-6.1-1.6-8Zm-13.4.4c-1.3.4-1.8.7-2.5 1.4a4 4 0 0 0-.8.8l-.3.7a5 5 0 0 0-.8 2.2v.5h5.3c2.9 0 5.4-.1 5.5-.2l-.1-1.3c-.5-1.7-.7-2.1-1.4-2.9-1.2-1.2-3.3-1.8-5-1.2Z" clip-rule="evenodd"/><path d="m1303 38-.6-.3a13 13 0 0 0-5-.3c-2.3.4-5 2.3-6.7 4.8-.3.6-.7 1-.8.9-.1 0-.2-.6-.2-1.3 0-.6-.1-1.7-.3-2.4l-.2-1.3-4-.1c-3 0-3.9 0-4 .2-.2.3-.2 31.2 0 31.7l.3.5h4.5l4.8-.1c.2-.2.2-2.2.3-9.5 0-8.6 0-9.4.4-10 1.1-2.2 2-3.2 3.8-4 1.3-.8 1.6-.8 5.4-.6h.9l.3-1.3.4-2 .6-3.8v-1ZM1187.4 41.1c0-.7-3.2-2.7-5.5-3.4l-4-.2c-3 0-3.8 0-4.8.3a13.2 13.2 0 0 0-4.5 2 13.4 13.4 0 0 0-4.7 4.3 21.6 21.6 0 0 0-2 4.2c-.2.1-.3.6-.6 3a34.3 34.3 0 0 0 .5 9 19.2 19.2 0 0 0 3.3 6c1.4 1.5 4 3.2 6 3.8 2.2.8 3 .9 5.8.9 2.6 0 3.4-.1 5.3-.7 1.7-.6 4.9-2.3 5.6-3.1.2-.3 0-.7-1.2-2.4l-1.2-2a18 18 0 0 0-.3-.5c-.7-1.1-1-1.4-1.4-1.4-.2 0-.5 0-.5.2a10 10 0 0 1-3.3 1.6 7 7 0 0 1-4.7-.5c-.8-.4-2-1.5-2-1.8l-.5-.7a9.4 9.4 0 0 1-1.3-5.6c0-2.1 0-2.6.5-3.8a7 7 0 0 1 3.6-4.3c.8-.4 1.1-.5 3-.5 1.1 0 2 0 2 .2l2.5 1.4a212.5 212.5 0 0 1 4.4-6Z"/><path fill-rule="evenodd" d="M1210.2 38.4c0-.1-.6-.4-1.3-.6-1-.4-1.7-.4-5-.4l-4.4.2c-3.5.9-9 3.3-9 4v.7l2.4 4.2c.4 1 .7 1.3 1 1.4.3.1.7-.1 1.5-.6a13 13 0 0 1 8.8-1.8c1.1.3 2.3 1.4 2.7 2.5.3 1.3.3 1.3-1.2 1.5-2.2.3-5.6 1-6.7 1.3-4.5 1.3-7.8 3.6-9 6.5-1.5 3-.9 7.6 1.3 10.3a8.3 8.3 0 0 0 4.4 3c1.1.4 5 .5 6.1.2 1.7-.5 2.9-1 2.9-1.2l.2-.1 1.7-1.1h.1c.8-.7 1.2-1 1.5-.9.2.1.3.5.4 1.4.2.8.3 1.2.6 1.3.4.3 7.6.2 7.8 0V58c0-9 0-11.1-.8-13a21 21 0 0 0-.9-2v-.3c-.9-1.6-3.8-4.3-4.7-4.3l-.4-.1Zm-10.7 20c1-1 2.4-1.8 5.4-2.5l1.5-.2h.7v5.1l-.8.7a6 6 0 0 1-4.2 1.7c-2.4 0-3.3-.8-3.3-2.8 0-1 .1-1.2.8-2Z" clip-rule="evenodd"/></g><g fill="#B7B8BB" clip-path="url(#h)"><path d="M783.5 142.6c-.4-4-2.3-7.7-5.2-10.4a15.9 15.9 0 0 0-21.5 0c-3 2.7-4.8 6.4-5.2 10.4a16 16 0 0 0-10.7 5.5 16.5 16.5 0 0 0 1.2 22.7c3 2.9 7.1 4.4 11.3 4.3h14.1c2.4 0 4.7-1 6.4-2.6a9.2 9.2 0 0 0 0-13 8.9 8.9 0 0 0-6.4-2.6 5.2 5.2 0 0 1-4.3-2.4 5.4 5.4 0 0 1 3.3-8.1 5.1 5.1 0 0 1 4.7 1.4 1.9 1.9 0 0 0 2 .5 1.9 1.9 0 0 0 1.1-1 2 2 0 0 0-.4-2.2 9 9 0 0 0-8.1-2.5 8.9 8.9 0 0 0-6.5 5.5 9.3 9.3 0 0 0 4 11.5c1.3.7 2.8 1 4.2 1a5.2 5.2 0 0 1 3.7 1.6 5.3 5.3 0 0 1 1.2 5.8 5.3 5.3 0 0 1-2.9 3c-.6.2-1.3.3-2 .3h-14.1c-3.3 0-6.4-1.3-8.8-3.7a12.6 12.6 0 0 1 0-17.7c2.4-2.3 5.5-3.6 8.8-3.6.5 0 1-.2 1.3-.6.3-.4.5-.8.5-1.3 0-3.4 1.3-6.6 3.6-9a12.2 12.2 0 0 1 17.4 0c2.4 2.4 3.7 5.6 3.7 9 0 .5.2 1 .5 1.3.4.4.8.6 1.3.6 3.3 0 6.4 1.3 8.7 3.6a12.6 12.6 0 0 1 0 17.7 12.2 12.2 0 0 1-8.7 3.7c-.5 0-1 .2-1.3.6a2 2 0 0 0 0 2.7c.4.3.8.5 1.3.5 4.1 0 8-1.6 11-4.4a16.4 16.4 0 0 0-9.2-28.1ZM819.6 163l-2.9-1.1c-2.1-.7-4.3-1.5-4.3-3.3 0-1.8 1.4-2.8 3.5-2.8s4 1 5.5 2.4l1.9-2.7c-1.4-1.5-3.6-3-7.5-3-3.8 0-7.3 2.3-7.3 6.4 0 3.2 2 4.6 3.4 5.3 1 .6 1.6.7 3 1.2 1.5.5 5 1.2 5 3.7 0 2.4-2.2 3.1-4.2 3.1a8.8 8.8 0 0 1-6.5-3.1l-2 2.6c1.8 2.4 4.7 4 8.4 4 2.5 0 4.5-.8 6-2a6.3 6.3 0 0 0 2.3-5 5.6 5.6 0 0 0-1.7-4.1 8.3 8.3 0 0 0-2.6-1.6ZM835.6 152.6c-2.9 0-5.7.8-8.2 2.2l1.3 3c2-1.2 4.3-1.9 6.6-2 3.1 0 5.4 1.8 5.4 5.1v.9l-5.8.2c-5 .3-8.5 2.5-8.5 6.8s3.4 6.8 7.5 6.8c4 0 6-2.3 6.9-3.3v2.8h4.3v-12.8c0-3.8-.9-5.7-2.4-7.2-1.4-1.6-3.5-2.5-7.1-2.5Zm5.1 16.7a6.8 6.8 0 0 1-5.5 3.2c-2.8 0-4.5-1.8-4.5-3.9 0-2 1.4-3.6 5-3.8l5-.3v4.8ZM870.6 152.6c-6 0-11 4.4-11 11.4s4.4 11.6 10.8 11.6c6.5 0 9.3-3.2 9.6-3.5l-1.8-2.5c-2 1.6-4.6 2.5-7.2 2.5-4 0-6.8-2.6-7-7h16.7l.2-2c0-6.1-4.3-10.5-10.3-10.5ZM864 162c.2-2.6 2.1-6.3 6.5-6.3 4.3 0 6.2 3.9 6.2 6.3H864ZM895 163l-3-1.1c-2.1-.7-4.2-1.5-4.2-3.3 0-1.8 1.3-2.8 3.4-2.8 2.1 0 4 1 5.5 2.4l1.9-2.7c-1.4-1.5-3.6-3-7.4-3-3.9 0-7.4 2.3-7.4 6.4 0 3.2 2 4.6 3.5 5.3 1 .6 1.5.7 3 1.2 1.4.5 4.8 1.2 4.8 3.7 0 2.4-2.1 3.1-4.1 3.1a8.8 8.8 0 0 1-6.4-3.1l-2.2 2.6c1.9 2.4 4.9 4 8.5 4 2.5 0 4.6-.8 6-2a6.3 6.3 0 0 0 2.3-5 5.6 5.6 0 0 0-1.7-4.2 8.3 8.3 0 0 0-2.5-1.5ZM913.7 152.6a9 9 0 0 0-7.7 3.9V153h-4.3v30.5h4.4v-11.9c1.6 2.5 4.1 4 7.5 4 6.5 0 10.6-5 10.6-11.6 0-6.5-4-11.4-10.5-11.4Zm-.9 19.2c-4.3 0-7-3.4-7-7.8s2.7-7.8 7-7.8c4.4 0 7 3.4 7 7.8s-2.6 7.8-7 7.8ZM946.4 153H942V175h4.4V153ZM961.2 152.6a7.2 7.2 0 0 0-6.6 3.9h-.1V153h-4.4V175h4.4V164c0-4.3 1.5-7.7 5.6-7.7 3.9 0 4.5 2.8 4.5 6.5V175h4.4v-13c0-5.4-1.6-9.5-7.8-9.5ZM989.7 153v3.5h-.1c-1.3-2-3.8-4-7.6-4-5.6 0-10.5 4.2-10.5 11.2 0 7 4.9 11.1 10.5 11.1 3.6 0 6.1-1.7 7.6-4v1c0 3-.7 5-1.6 6.1-.8 1.1-2.7 2.5-6 2.5-3.2 0-6.6-1.8-7.7-2.8l-2 3c2.7 2.2 6.1 3.4 9.6 3.4 5.4 0 8.1-2.2 9.7-4.2 1.6-2 2.4-4.7 2.4-9.6V153h-4.3Zm-6.8 18.2c-4.5 0-7-3.3-7-7.5s2.5-7.6 7-7.6c4.4 0 6.9 3.4 6.9 7.6 0 4.2-2.4 7.5-7 7.5ZM850.2 144.9c-.9 1.2-1.4 3-1.4 5.9v24.3h4.3v-18.5h5.2V153H853v-2.4c0-2.5.5-4.7 3.4-4.7.6 0 1.2 0 1.8.2v-3.4c-1-.2-1.9-.2-2.8-.2a6.5 6.5 0 0 0-5.3 2.4ZM931.1 156.4V153h-4.4V175h4.4v-11c0-3.3.9-5 1.3-5.6a4.6 4.6 0 0 1 3.6-1.9c.8 0 1.6.2 2.3.5v-4.3a7 7 0 0 0-1.8-.2c-2.3 0-4.3 1.3-5.4 3.8ZM944.2 148.3c1.6 0 2.9-1.3 2.9-3a2.9 2.9 0 0 0-5.7 0c0 1.7 1.2 3 2.8 3Z"/></g><g fill="#B7B8BB" clip-path="url(#i)"><path d="m1394.2 123.3-.7.9-.5.5-1-.5-1.1-.4-1.8.8-1.9.9-.4 1.1-.4 1.2h-1.4l-1.4.2-1.2 2.5-1.1 2.5.7 1.1.7 1.3-.6 1-.7 1 .3 2.2.3 2.2 1.3.4 1.3.5v.8l.1 1.4v.7l2 1.1 2.1 1.2 1-.3.8-.3.8 1 .7.8v10.6h-2.3v-1.2H1385v2.5H1389.8v1.2h2.3v7.6H1381v2.5h5v2.4h14.6v-2.4H1405.3v-2.5h-10.8v-10h3.4v-2h5.9V155.5h-6v2.5h-3.3V149h2.7l.8-.8.8-.8.6.2c1.3.5 1 .6 3.4-.3l2.2-.8.2-1.3.3-1.3s.6-.2 1.3-.2l1.3-.3.9-2.2.8-2-.2-.5-.5-1.3-.4-.8.8-1.1.7-1.1-.6-2.3-.7-2.5-1.2-.4-1.1-.3v-.9l-.2-1.2c0-.3 0-.4-1.9-1.5l-1.9-1.3-1 .3-1.2.3-.7-.8-.7-.9h-4.5l-.3.3Zm4.2 2.8.8 1 .4.5 1.3-.4 1.3-.3.9.5 1 .6v1.5c0 .8.2 1.4.2 1.5l1.4.3 1.2.3.2.8c0 .4.2.8.3 1 .1.5 0 .7-.7 1.9l-.8 1.2.6 1.4.7 1.4-.5 1-.4 1-1.4.1-1.6.3-.3 1.6-.2 1.4-1.1.4-1.1.4-1.2-.5-1.1-.5-1 1-1 1h-3.1l-.8-1-.9-1-1.2.3-1.3.3-1-.5-.8-.5v-1l-.1-1.6v-.6l-1.4-.5-1.4-.5-.2-1-.1-.9.8-1.3.9-1.3-.8-1.3-.8-1.3.3-.6.5-1.2.3-.6h1.5l1.5-.2.4-1.3.6-1.5 1-.5.8-.3 1.4.6 1.5.6.8-1.1.9-1.1h2.3l.5.5Z"/><path d="m1392.5 132.2-1 1.1v4l1 1 1 1.2h6.4l1-1.1 1.1-1v-2l.1-2.1-1-1.1-1-1.1h-6.5l-1.1 1Zm6.8 1.8.4.4v.9c-.1.9-.1 1-.5 1.3l-.4.4h-4.2l-.4-.4-.4-.4v-1.9l.4-.3.4-.4h4.4l.3.4ZM1457.7 155.3v19.3h6.4V136h-6.4v19.4ZM1426 156.4v18.3h6.5v-14h17.2v-5.8h-17.2v-11.1h19.4V138.1h-26v18.3ZM1482.4 146.6c-4.2.6-7.8 2.8-9.9 6a14.2 14.2 0 0 0-2.3 8.7 13.8 13.8 0 0 0 9.3 12.9c1.8.6 2.7.7 5.2.7 2 0 2.4 0 3.3-.2 6-1.3 10-5.6 11-11.6.2-1.3.1-4.5-.1-5.6a13.9 13.9 0 0 0-11-10.8c-1.1-.1-4.5-.2-5.5 0Zm4.4 5.7c.4 0 1 .3 1.6.6.8.4 1.1.6 2 1.5.8.8 1 1.1 1.4 2 .6 1.2.8 2.3 1 3.7 0 1.8-.4 4-1.1 5.2a8.1 8.1 0 0 1-4.8 3.8c-1 .3-3.5.3-4.5 0-2.7-.7-4.8-2.9-5.5-5.7-.6-2.5-.3-5 .7-7a8.2 8.2 0 0 1 4.4-4 10 10 0 0 1 4.8-.1ZM1559.8 146.7c-8 1.3-12.7 8.3-11.3 16.8.8 5 4.3 9 9.1 10.6 4.6 1.5 10.2 1 13.8-1.1.8-.6 2.2-1.8 2.6-2.3l.2-.3-1.7-2-1.7-2-.3.4c-.8.8-2.6 1.9-4 2.3-2.6.7-5.7.4-7.9-.7a8 8 0 0 1-3.2-3.3l-.7-2.1v-.2h21.2v-.4c.2-.7 0-4-.2-5-.4-2.2-1.3-4-2.5-5.7a13.2 13.2 0 0 0-7.8-4.9 24 24 0 0 0-5.6-.1Zm4.7 5.3a7 7 0 0 1 3.3 2 9 9 0 0 1 1.1 1.3c.4.7.9 2 1 2.7v.5h-7.6c-7 0-7.7 0-7.7-.2 0-.4.4-1.5.8-2.4 1-2 3-3.7 5.5-4.1.8-.2 2.7 0 3.6.2ZM1595.2 146.7c-3 .4-5.2 1.6-6.5 3.4l-.5.7v-4h-6v27.9H1588.5v-7.9c.1-7.7.1-7.8.3-8.6.2-.5.4-1.3.7-1.7.3-.8.5-1 1.3-1.8 1-1 1.8-1.5 3.1-1.9 1-.2 2.6-.3 3.4-.2h.5v-6h-2.6ZM1500.9 147.8l5 14 4.6 12.8h6.1l3.5-9.4 3.6-9.5c0-.2.9 2 3.3 8.6l3.5 9.6.3.8h6l.2-.4a9947.3 9947.3 0 0 0 9.9-27.4H1541.2l-3.6 10.1-3.7 10.3-3.7-10.2-3.6-10.3h-5.4l-2.2 6-3.7 10.2c-1.4 3.8-1.6 4.2-1.7 4l-3.6-10.2-3.4-10h-6l.3 1Z"/></g><path fill="#B7B8BB" d="M348.5 135.4h4.2a2958 2958 0 0 1 4.5 9.4l.2.4 1.3 3 5 10.4a981 981 0 0 0 1.7 3.6l.8 1.7.4.8.6 1.1c0 .3.2.5.3.7l.2 1h.4l.2-.6a23.5 23.5 0 0 1 1.8-3.9l1.3-2.7.2-.5 2.3-4.7.7-1.5c0-.3.2-.5.3-.8l2-4.2c1-1.8 1.8-3.7 2.6-5.5l.6-1.2.9-1.9.8-1.7.2-.5.2-.5.2-.4 1-1.5h4.2v38.2h-4.3l-.2-27.7-6.6 13.8-1.1 2.4-.2.4a1965.3 1965.3 0 0 1-4 8.5c-.5 1.2-.9 2-2.2 2.6l-1.1.1h-.6c-.7-.1-1-.3-1.6-.8l-.9-1.5-.2-.5-.7-1.5-.4-.9a372.1 372.1 0 0 1-7.5-15.7l-.4-.8-2.9-6-.2 27.6h-4v-38.2ZM467.6 135.3h3.1a295.4 295.4 0 0 1 8.7 0c3.6 0 7.1.7 9.9 3.2 2.5 2.6 4 5.7 4 9.3-.2 3.8-1.7 7-4.5 9.6a12.4 12.4 0 0 1-8.5 2.7h-.7l-1.8.1.7.4a305.8 305.8 0 0 1 14 8.4l.8.4.6.4.7.4c.4.3.4.3.7.8a29.6 29.6 0 0 1-2 3.3c-1.3-.4-2.4-1-3.5-1.7l-1.3-.8-.6-.4-3.2-2a922.3 922.3 0 0 1-9.9-5.9l-.7-.4-1.3-.8c-2.6-1.5-2.6-1.5-3-2.7a4 4 0 0 1 .7-2.9c1-.8 2-.8 3.3-.8h.7a286.2 286.2 0 0 1 4.8 0h.6a10 10 0 0 0 6.6-2.4c1.7-1.7 2.4-4 2.3-6.3a8.6 8.6 0 0 0-2.8-5.7c-5-3.7-12.3-1.8-18-2v34.1h-4.2a6553 6553 0 0 1-.1-34.5v-.8c.1-1.1.7-1.8 1.6-2.5.8-.5 1.4-.5 2.3-.5ZM539.7 135.4c4.3 0 4.3 0 5.2.6l.6 1 .4.4.6 1 1.7 2.3.7.8 2.5 3.2 3 3.7 1.9 2.4.4.5 3.3 4.1 1.8 2.3 1.5 2 3.6 4.4.4.5.4.5a73.4 73.4 0 0 1 1 1.5l.3-31.2h4.2a7266.6 7266.6 0 0 1 .1 29.2v2.8a119.3 119.3 0 0 0 0 2.5v.8a4 4 0 0 1-1.2 2.7 5 5 0 0 1-2.9.2c-1.1-.8-1.9-1.7-2.7-2.8l-3-3.8a592.6 592.6 0 0 0-16.7-21c-1-1.1-1.9-2.4-2.8-3.6l-.2 31.2h-4v-38.2ZM528.2 139.3a19.7 19.7 0 0 1 3.4 27l-2.1 2.3-.4.4c-2.7 3-7.4 4.8-11.4 5.1H514.6c-4.8 0-9-1.8-12.6-4.9l-.6-.4a18.9 18.9 0 0 1-6-13c0-6 1.7-11 6-15.5 7.4-6.9 19-7.2 26.8-1Zm-25 5.3c-3 3.7-3.8 7.7-3.5 12.3.5 4 2.9 7.4 6 10 3.5 2.4 7.5 3.7 11.8 3a17 17 0 0 0 10.9-6.4c2.4-3.5 3.4-7.7 2.6-12-.7-2.8-2-5.3-4-7.5l-.4-.5a15.2 15.2 0 0 0-11-4.5h-.7c-4.7.1-8.7 2.2-11.7 5.6ZM453.5 138.2l1.1 1a21.2 21.2 0 0 1 4.5 4.8v.4l-1.4 1-.4.3c-1 .7-1 .7-1.6.7-.6-.3-.9-.7-1.2-1.2-2.5-3.1-6-5.4-10-5.9a17 17 0 0 0-12.4 3.4 15.7 15.7 0 0 0-5.5 10 15 15 0 0 0 1.7 9c1.7 3.4 4.8 6 8.4 7.3 4 1.3 8.1 1.2 12.1-.5 3.3-1.8 5.4-4 7.4-7.2 1 .1 1.6.5 2.5 1.1l.7.5.6.4a17 17 0 0 1-9 9c-4.5 2.1-10 2.6-14.8 1.2-5.9-2.2-10-5.8-12.7-11.5a20 20 0 0 1 0-15.1c2.3-5 6.3-8.8 11.4-10.8 6.1-2.2 13.2-1.6 18.6 2.1ZM620 138.8c1.9 1.5 3.7 3.3 4.9 5.4l-1.4 1-.4.4c-1 .8-1 .8-1.6.7-.7-.3-1.1-.9-1.6-1.5-2.4-2.9-5.8-4.9-9.6-5.5a16.7 16.7 0 0 0-13.1 4l-.5.4a15.1 15.1 0 0 0-4.5 10c-.2 4.2 1.4 8.3 4.2 11.5 3 3 7 4.6 11.3 4.7 4.1 0 8-1.7 11.1-4.4.9-.9 1.6-1.9 2.3-2.9l.3-.4.6-.9a6 6 0 0 1 2.1 1l.7.4c.5.4.5.4.7.8 0 2-2.8 4.3-4.2 5.7-2 1.8-4.4 3.1-7 4l-.7.2c-4 1.2-8.6 1.1-12.4-.2l-.8-.3a20 20 0 0 1-11.1-10.7 19.8 19.8 0 0 1 10.8-26c6.8-2.4 14-1.6 19.9 2.6ZM389.4 135.4l2.4-.2h.7c1 0 1.7 0 2.5.6l1 1.6 1.3 2 1.6 2.3a740.6 740.6 0 0 0 9 13.2c1.6-2 3-4.1 4.4-6.3l1.3-1.9 4-6.1c2.9-4.8 2.9-4.8 4.4-5.5a9 9 0 0 1 4.4.3l-2.4 3.9-.3.5-.9 1.2-2.1 3.2-.5.6-5.7 8.4-.3.6a121.6 121.6 0 0 0-2.5 3.4c-2.3 2.6-1.9 6-1.8 9.2V173.6h-4v-1.1c.6-8.3.3-14.1-5.3-20.7-1.7-2-3-4-4.4-6.2l-2-3-.4-.6-3.6-5.1-.3-.5-.3-.5-.2-.5ZM579 135.4h4.3v38.2h-4.2v-38.2Z"/><path fill="#B7B8BB" d="M355.8 135.4h4.7l5.4 11.3 1.8 3.6.9 1.9a87.1 87.1 0 0 0 1 2l.3.7c.4 1.2.1 2.2-.4 3.2a72.4 72.4 0 0 1-.5 1l-.2.5-.7 1.3h-.4a1838 1838 0 0 1-11-23l-.2-.6-.3-.6-.2-.5-.2-.8ZM547.6 135.4a47 47 0 0 1 4-.1h.7a3 3 0 0 1 1.7.9l.7 1.2 1 1.2 1 1.3 2.2 2.8 3 3.8 2.7 3.4.4.5.3.4c.8 1 .9 1.4.8 2.6a63.4 63.4 0 0 0 0 1.8v3.3a55.4 55.4 0 0 1-6.8-8.2l-.3-.3-.6-.8-1.6-2-1.8-2.2a877.8 877.8 0 0 1-5.7-7.2l-.4-.5-.6-.8c-.7-.9-.7-.9-.7-1.1Z"/></g><defs><clipPath id="a"><path fill="#fff" d="M0 0h1600v200H0z"/></clipPath><clipPath id="b"><path fill="#fff" d="M1 26h279v46H1z"/></clipPath><clipPath id="c"><path fill="#fff" d="M713 18h215v53H713z"/></clipPath><clipPath id="f"><path fill="#fff" d="M2 137h234v44H2z"/></clipPath><clipPath id="g"><path fill="#fff" d="M1040 21h263v50h-263z"/></clipPath><clipPath id="h"><path fill="#fff" d="M737 128h257v56H737z"/></clipPath><clipPath id="i"><path fill="#fff" d="M1381 123h217v52h-217z"/></clipPath></defs></svg>