<svg xmlns="http://www.w3.org/2000/svg" width="24" height="24" fill="none"><path fill="#B7B8BB" fill-rule="evenodd" d="M.04 0h8.71v8.7H.04V0Zm21.74 21.8H24V24h-2.22v-2.2Zm-4.27 0h2.22v2.1h-4.45v-4.28h2.16v-2.16h2.18v-4.31h2.23v2.12h2.11v2.19h-2.11v2.19H17.5v2.16Zm-6.6-4.37h2.15v-2.2h-2.08v-2.19h2.08v-2.19h-2.12v2.2H8.72v-2.2h2.18v-6.5h2.23v6.5h2.15v2.2h2.12v-2.2h2.22v2.2H17.5v2.18h-2.23v4.32h-2.15v4.34H10.9v-6.46Zm10.83-6.58h2.22v2.2h-2.22v-2.2Zm-17.36 0H6.6v2.2H4.38v-2.2Zm-4.34 0h2.22v2.2H.04v-2.2ZM10.9 0h2.22v2.2H10.9V0ZM0 15.27h8.72v8.7H0v-8.7Zm2.12 2.11H6.6v4.47H2.12v-4.47ZM15.25 0h8.71v8.7h-8.71V0Zm2.12 2.11h4.48v4.47h-4.48V2.11Zm-15.22 0h4.48v4.47H2.15V2.11Z" clip-rule="evenodd"/></svg>