<svg xmlns="http://www.w3.org/2000/svg" width="30" height="31" fill="none"><path fill="#B7B8BB" fill-rule="evenodd" d="M.04.59h10.9v10.86H.04V.6Zm27.18 27.26H30v2.74h-2.78v-2.74Zm-5.34 0h2.78v2.6H19.1v-5.33h2.7v-2.7h2.73v-5.4h2.78v2.65h2.65v2.74H27.3v2.74h-5.43v2.7Zm-8.25-5.48h2.7v-2.74h-2.6v-2.74h2.6v-2.74h-2.65v2.74H10.9v-2.74h2.73V6.02h2.78v8.13h2.69v2.74h2.65v-2.74h2.77v2.74h-2.64v2.74H19.1v5.39h-2.69v5.43h-2.78v-8.08Zm13.55-8.22h2.77v2.74h-2.77v-2.74Zm-21.7 0h2.77v2.74H5.47v-2.74Zm-5.44 0h2.78v2.74H.04v-2.74ZM13.64.6h2.77v2.73h-2.78V.6ZM0 19.67h10.9v10.87H0V19.67Zm2.65 2.64h5.6v5.6h-5.6v-5.6ZM19.05.6h10.9v10.86h-10.9V.6Zm2.66 2.64h5.6v5.59h-5.6v-5.6Zm-19.02 0h5.6v5.59H2.7v-5.6Z" clip-rule="evenodd"/></svg>